# xmcd CD database file
#
# Track frame offsets:
#	150
#	29175
#	42792
#	62612
#	80992
#	99352
#	125607
#	152677
#	172980
#	195150
#
# Disc length: 2850 seconds
#
# Revision: 3
# Processed by: cddbd v1.5.2PL0 Copyright (c) Steve Scherf et al.
# Submitted via: CDex 1.51
#
DISCID=7d0b200a
DTITLE=SKYFIRE - SPECTRAL
DYEAR=2004
DGENRE=Death Metal
TTITLE0=01 - CONJURING THE THOUGHTS
TTITLE1=02 - EFFUSION OF STRENGTH
TTITLE2=03 - SHIVERING SHADE
TTITLE3=04 - CURSED BY BELIEF
TTITLE4=05 - AWAKE
TTITLE5=06 - VOID OF HOPE
TTITLE6=07 - A DEAD MANS RACE
TTITLE7=08 - SHADOW CREATOR
TTITLE8=09 - TRANQUILLITYS MAZE
TTITLE9=10 - SKYFIRE [Live Version]
EXTD=YEAR: 2004
EXTT0=
EXTT1=
EXTT2=
EXTT3=
EXTT4=
EXTT5=
EXTT6=
EXTT7=
EXTT8=
EXTT9=
PLAYORDER=
